<mxfile host="app.diagrams.net" modified="2023-09-07T19:52:04.116Z" agent="Mozilla/5.0 (Macintosh; Intel Mac OS X 10_15_7) AppleWebKit/537.36 (KHTML, like Gecko) Chrome/116.0.0.0 Safari/537.36" etag="xxKNxcgA48FM-OljjjTq" version="21.7.2" type="github">
  <diagram name="Página-1" id="vprhsQMBkNUB0zahPfLO">
    <mxGraphModel dx="1952" dy="967" grid="1" gridSize="10" guides="1" tooltips="1" connect="1" arrows="1" fold="1" page="1" pageScale="1" pageWidth="827" pageHeight="1169" math="0" shadow="0">
      <root>
        <mxCell id="0" />
        <mxCell id="1" parent="0" />
        <mxCell id="_0Fz1vLa71ImcysnaqAO-73" value="telefone" style="ellipse;whiteSpace=wrap;html=1;align=center;" vertex="1" parent="1">
          <mxGeometry x="200" y="640" width="100" height="40" as="geometry" />
        </mxCell>
        <mxCell id="_0Fz1vLa71ImcysnaqAO-74" value="nome" style="ellipse;whiteSpace=wrap;html=1;align=center;" vertex="1" parent="1">
          <mxGeometry x="80" y="640" width="100" height="40" as="geometry" />
        </mxCell>
        <mxCell id="_0Fz1vLa71ImcysnaqAO-75" value="tipoCliente" style="ellipse;whiteSpace=wrap;html=1;align=center;" vertex="1" parent="1">
          <mxGeometry x="430" y="640" width="100" height="40" as="geometry" />
        </mxCell>
        <mxCell id="_0Fz1vLa71ImcysnaqAO-84" value="telefone" style="ellipse;whiteSpace=wrap;html=1;align=center;" vertex="1" parent="1">
          <mxGeometry x="314" y="640" width="100" height="40" as="geometry" />
        </mxCell>
        <mxCell id="_0Fz1vLa71ImcysnaqAO-87" value="" style="endArrow=none;html=1;rounded=0;exitX=0.5;exitY=0;exitDx=0;exitDy=0;entryX=0.25;entryY=1;entryDx=0;entryDy=0;" edge="1" parent="1" source="_0Fz1vLa71ImcysnaqAO-73">
          <mxGeometry width="50" height="50" relative="1" as="geometry">
            <mxPoint x="230" y="550" as="sourcePoint" />
            <mxPoint x="250" y="530" as="targetPoint" />
          </mxGeometry>
        </mxCell>
        <mxCell id="_0Fz1vLa71ImcysnaqAO-88" value="" style="endArrow=none;html=1;rounded=0;exitX=0.5;exitY=0;exitDx=0;exitDy=0;entryX=0;entryY=1;entryDx=0;entryDy=0;" edge="1" parent="1" source="_0Fz1vLa71ImcysnaqAO-74" target="_0Fz1vLa71ImcysnaqAO-93">
          <mxGeometry width="50" height="50" relative="1" as="geometry">
            <mxPoint x="150" y="610" as="sourcePoint" />
            <mxPoint x="200" y="530" as="targetPoint" />
          </mxGeometry>
        </mxCell>
        <mxCell id="_0Fz1vLa71ImcysnaqAO-89" value="" style="endArrow=none;html=1;rounded=0;exitX=0.5;exitY=0;exitDx=0;exitDy=0;entryX=1;entryY=1;entryDx=0;entryDy=0;" edge="1" parent="1" source="_0Fz1vLa71ImcysnaqAO-75" target="_0Fz1vLa71ImcysnaqAO-93">
          <mxGeometry width="50" height="50" relative="1" as="geometry">
            <mxPoint x="470" y="620" as="sourcePoint" />
            <mxPoint x="400" y="530" as="targetPoint" />
          </mxGeometry>
        </mxCell>
        <mxCell id="_0Fz1vLa71ImcysnaqAO-92" value="" style="endArrow=none;html=1;rounded=0;exitX=0.5;exitY=0;exitDx=0;exitDy=0;" edge="1" parent="1" source="_0Fz1vLa71ImcysnaqAO-84">
          <mxGeometry width="50" height="50" relative="1" as="geometry">
            <mxPoint x="320" y="470" as="sourcePoint" />
            <mxPoint x="360" y="530" as="targetPoint" />
          </mxGeometry>
        </mxCell>
        <mxCell id="_0Fz1vLa71ImcysnaqAO-93" value="Pessoa" style="whiteSpace=wrap;html=1;align=center;" vertex="1" parent="1">
          <mxGeometry x="174" y="490" width="240" height="40" as="geometry" />
        </mxCell>
        <mxCell id="_0Fz1vLa71ImcysnaqAO-94" value="Veículo" style="whiteSpace=wrap;html=1;align=center;" vertex="1" parent="1">
          <mxGeometry x="660" y="490" width="350" height="40" as="geometry" />
        </mxCell>
        <mxCell id="_0Fz1vLa71ImcysnaqAO-95" value="modelo" style="ellipse;whiteSpace=wrap;html=1;align=center;" vertex="1" parent="1">
          <mxGeometry x="785" y="640" width="100" height="40" as="geometry" />
        </mxCell>
        <mxCell id="_0Fz1vLa71ImcysnaqAO-96" value="placa" style="ellipse;whiteSpace=wrap;html=1;align=center;" vertex="1" parent="1">
          <mxGeometry x="640" y="640" width="100" height="40" as="geometry" />
        </mxCell>
        <mxCell id="_0Fz1vLa71ImcysnaqAO-97" value="cor" style="ellipse;whiteSpace=wrap;html=1;align=center;" vertex="1" parent="1">
          <mxGeometry x="910" y="640" width="100" height="40" as="geometry" />
        </mxCell>
        <mxCell id="_0Fz1vLa71ImcysnaqAO-99" value="" style="endArrow=none;html=1;rounded=0;exitX=0.5;exitY=0;exitDx=0;exitDy=0;" edge="1" parent="1" source="_0Fz1vLa71ImcysnaqAO-96">
          <mxGeometry width="50" height="50" relative="1" as="geometry">
            <mxPoint x="640" y="580" as="sourcePoint" />
            <mxPoint x="690" y="530" as="targetPoint" />
          </mxGeometry>
        </mxCell>
        <mxCell id="_0Fz1vLa71ImcysnaqAO-100" value="" style="endArrow=none;html=1;rounded=0;entryX=0.5;entryY=1;entryDx=0;entryDy=0;exitX=0.5;exitY=0;exitDx=0;exitDy=0;" edge="1" parent="1" source="_0Fz1vLa71ImcysnaqAO-95" target="_0Fz1vLa71ImcysnaqAO-94">
          <mxGeometry width="50" height="50" relative="1" as="geometry">
            <mxPoint x="850" y="640" as="sourcePoint" />
            <mxPoint x="900" y="590" as="targetPoint" />
          </mxGeometry>
        </mxCell>
        <mxCell id="_0Fz1vLa71ImcysnaqAO-101" value="" style="endArrow=none;html=1;rounded=0;exitX=0.5;exitY=0;exitDx=0;exitDy=0;entryX=0.858;entryY=1.012;entryDx=0;entryDy=0;entryPerimeter=0;" edge="1" parent="1" source="_0Fz1vLa71ImcysnaqAO-97" target="_0Fz1vLa71ImcysnaqAO-94">
          <mxGeometry width="50" height="50" relative="1" as="geometry">
            <mxPoint x="935" y="610" as="sourcePoint" />
            <mxPoint x="985" y="560" as="targetPoint" />
          </mxGeometry>
        </mxCell>
        <mxCell id="_0Fz1vLa71ImcysnaqAO-105" value="registroVagas" style="whiteSpace=wrap;html=1;align=center;" vertex="1" parent="1">
          <mxGeometry x="1210" y="490" width="350" height="40" as="geometry" />
        </mxCell>
        <mxCell id="_0Fz1vLa71ImcysnaqAO-106" value="dataHoraEntrada" style="ellipse;whiteSpace=wrap;html=1;align=center;" vertex="1" parent="1">
          <mxGeometry x="1210" y="640" width="100" height="40" as="geometry" />
        </mxCell>
        <mxCell id="_0Fz1vLa71ImcysnaqAO-107" value="dataHoraSaida" style="ellipse;whiteSpace=wrap;html=1;align=center;" vertex="1" parent="1">
          <mxGeometry x="1340" y="640" width="100" height="40" as="geometry" />
        </mxCell>
        <mxCell id="_0Fz1vLa71ImcysnaqAO-108" value="vagaOcupada" style="ellipse;whiteSpace=wrap;html=1;align=center;" vertex="1" parent="1">
          <mxGeometry x="1460" y="640" width="100" height="40" as="geometry" />
        </mxCell>
        <mxCell id="_0Fz1vLa71ImcysnaqAO-109" value="" style="endArrow=none;html=1;rounded=0;" edge="1" parent="1">
          <mxGeometry width="50" height="50" relative="1" as="geometry">
            <mxPoint x="1260" y="640" as="sourcePoint" />
            <mxPoint x="1260" y="530" as="targetPoint" />
          </mxGeometry>
        </mxCell>
        <mxCell id="_0Fz1vLa71ImcysnaqAO-110" value="" style="endArrow=none;html=1;rounded=0;entryX=0.512;entryY=1.007;entryDx=0;entryDy=0;entryPerimeter=0;" edge="1" parent="1" target="_0Fz1vLa71ImcysnaqAO-105">
          <mxGeometry width="50" height="50" relative="1" as="geometry">
            <mxPoint x="1390" y="640" as="sourcePoint" />
            <mxPoint x="1440" y="590" as="targetPoint" />
          </mxGeometry>
        </mxCell>
        <mxCell id="_0Fz1vLa71ImcysnaqAO-111" value="" style="endArrow=none;html=1;rounded=0;entryX=0.857;entryY=1.007;entryDx=0;entryDy=0;entryPerimeter=0;" edge="1" parent="1" target="_0Fz1vLa71ImcysnaqAO-105">
          <mxGeometry width="50" height="50" relative="1" as="geometry">
            <mxPoint x="1510" y="640" as="sourcePoint" />
            <mxPoint x="1560" y="590" as="targetPoint" />
          </mxGeometry>
        </mxCell>
        <mxCell id="_0Fz1vLa71ImcysnaqAO-113" value="Possui" style="shape=rhombus;double=1;perimeter=rhombusPerimeter;whiteSpace=wrap;html=1;align=center;" vertex="1" parent="1">
          <mxGeometry x="480" y="480" width="120" height="60" as="geometry" />
        </mxCell>
        <mxCell id="_0Fz1vLa71ImcysnaqAO-115" value="" style="line;strokeWidth=1;rotatable=0;dashed=0;labelPosition=right;align=left;verticalAlign=middle;spacingTop=0;spacingLeft=6;points=[];portConstraint=eastwest;" vertex="1" parent="1">
          <mxGeometry x="414" y="505" width="66" height="10" as="geometry" />
        </mxCell>
        <mxCell id="_0Fz1vLa71ImcysnaqAO-116" value="" style="line;strokeWidth=1;rotatable=0;dashed=0;labelPosition=right;align=left;verticalAlign=middle;spacingTop=0;spacingLeft=6;points=[];portConstraint=eastwest;" vertex="1" parent="1">
          <mxGeometry x="600" y="505" width="60" height="10" as="geometry" />
        </mxCell>
        <mxCell id="_0Fz1vLa71ImcysnaqAO-117" value="contem" style="shape=rhombus;double=1;perimeter=rhombusPerimeter;whiteSpace=wrap;html=1;align=center;" vertex="1" parent="1">
          <mxGeometry x="1060" y="480" width="120" height="60" as="geometry" />
        </mxCell>
        <mxCell id="_0Fz1vLa71ImcysnaqAO-118" value="" style="line;strokeWidth=1;rotatable=0;dashed=0;labelPosition=right;align=left;verticalAlign=middle;spacingTop=0;spacingLeft=6;points=[];portConstraint=eastwest;" vertex="1" parent="1">
          <mxGeometry x="1010" y="505" width="50" height="10" as="geometry" />
        </mxCell>
        <mxCell id="_0Fz1vLa71ImcysnaqAO-119" value="" style="line;strokeWidth=1;rotatable=0;dashed=0;labelPosition=right;align=left;verticalAlign=middle;spacingTop=0;spacingLeft=6;points=[];portConstraint=eastwest;" vertex="1" parent="1">
          <mxGeometry x="1180" y="505" width="30" height="10" as="geometry" />
        </mxCell>
        <mxCell id="_0Fz1vLa71ImcysnaqAO-127" value="&lt;h1&gt;Diagrama DER Estacionamento&lt;/h1&gt;&lt;p&gt;Diagrama atividade 01 da matéria de Projeto de Banco de Dados&lt;/p&gt;" style="text;html=1;strokeColor=none;fillColor=none;spacing=5;spacingTop=-20;whiteSpace=wrap;overflow=hidden;rounded=0;" vertex="1" parent="1">
          <mxGeometry x="174" y="210" width="270" height="200" as="geometry" />
        </mxCell>
      </root>
    </mxGraphModel>
  </diagram>
</mxfile>
